# xmcd CD database file
#
# Track frame offsets:
#	150
#	37492
#	68842
#	101162
#	123677
#	155180
#	177210
#	207122
#	247560
#
# Disc length: 3640 seconds
#
# Revision: 0
# Processed by: cddbd v1.5.1PL0 Copyright (c) Steve Scherf et al.
# Submitted via: CDex 1.51
#
DISCID=810e3609
DTITLE=Christy Doran, Mark Helias, Bobby Previte, Gary Thomas - Corporate Art
DYEAR=1991
DGENRE=Jazz
TTITLE0=Blood Sugar 360*
TTITLE1=21
TTITLE2=Mutations
TTITLE3=Skin
TTITLE4=Chiaroscuro
TTITLE5=Heitere Gelassenheit
TTITLE6=Bass Minotaur
TTITLE7=The Same But Different
TTITLE8=Theme for W.
EXTD=YEAR: 1991
EXTT0=
EXTT1=
EXTT2=
EXTT3=
EXTT4=
EXTT5=
EXTT6=
EXTT7=
EXTT8=
PLAYORDER=
